<?xml version="1.0" encoding="UTF-8"?>
<svg id="katman_2" data-name="katman 2" xmlns="http://www.w3.org/2000/svg" viewBox="0 0 16.51 9">
  <defs>
    <style>
      .cls-1 {
        fill: #e50914;
        stroke-width: 0px;
      }
    </style>
  </defs>
  <g id="katman_1" data-name="katman 1">
    <g>
      <path class="cls-1" d="M2.95,7.15c-.99.09-1.97.2-2.95.34v-1.28C.93,4.07,1.88,2.06,2.82.12c.56,0,1.13,0,1.69,0,0,1.9,0,3.8,0,5.7.24-.01.49-.02.73-.03,0,.4,0,.8,0,1.2-.24.01-.49.03-.73.04,0,.51,0,1.02,0,1.53-.52.04-1.03.09-1.55.14,0-.52,0-1.04,0-1.56ZM2.95,5.92c0-1.12,0-2.23,0-3.35,0,0-.02,0-.03,0-.51,1.13-1.02,2.29-1.52,3.48.52-.05,1.03-.09,1.55-.13Z"/>
      <path class="cls-1" d="M6.49,8.02c-.4-.35-.61-.86-.61-1.53,0-1.46,0-2.93,0-4.39,0-.67.2-1.19.61-1.55C6.9.18,7.48,0,8.24,0c.76,0,1.34.18,1.75.55.4.37.61.88.61,1.55,0,1.46,0,2.93,0,4.39,0,.67-.2,1.18-.61,1.53-.4.35-.99.52-1.75.52-.76,0-1.35-.16-1.75-.51ZM9.05,6.54c0-1.51,0-3.02,0-4.53,0-.55-.27-.82-.8-.82-.54,0-.8.27-.8.82,0,1.51,0,3.02,0,4.53,0,.55.27.81.81.81.54,0,.81-.27.81-.81Z"/>
      <path class="cls-1" d="M14.24,7.22c-.98-.1-1.97-.18-2.96-.23,0-.4,0-.8,0-1.2.94-1.85,1.87-3.72,2.81-5.67.56,0,1.13,0,1.69,0,0,2,0,4,0,6,.24.03.49.05.73.08v1.28c-.24-.03-.49-.07-.73-.1,0,.54,0,1.07,0,1.61-.51-.08-1.03-.15-1.54-.22,0-.52,0-1.05,0-1.57ZM14.24,5.98c0-1.13,0-2.25,0-3.38,0,0-.02,0-.03,0-.51,1.11-1.01,2.19-1.52,3.27.52.03,1.03.07,1.55.11Z"/>
    </g>
  </g>
</svg>