<?xml version="1.0" encoding="UTF-8"?>
<svg id="Layer_2" data-name="Layer 2" xmlns="http://www.w3.org/2000/svg" viewBox="0 0 66.39 11.26">
  <defs>
    <style>
      .cls-1 {
        fill: #da1f26;
      }
    </style>
  </defs>
  <g id="Layer_1-2" data-name="Layer 1">
    <g>
      <path class="cls-1" d="M1.82,1.71c-.61.01-1.21.03-1.82.04C0,1.22,0,.69,0,.16c1.8,0,3.59,0,5.39,0,0,.5,0,.99,0,1.49-.61.01-1.21.02-1.82.03,0,3.04,0,6.08-.01,9.11-.58.07-1.16.15-1.74.22,0-3.1,0-6.2,0-9.3Z"/>
      <path class="cls-1" d="M6.85.15c.79,0,1.57,0,2.36,0,.59,3.33,1.19,6.61,1.78,9.83-.58.05-1.16.11-1.74.17-.1-.65-.21-1.3-.31-1.96,0,0,0,.02,0,.03-.66.05-1.32.11-1.98.17-.11.68-.21,1.36-.32,2.04-.54.06-1.07.12-1.61.19.61-3.56,1.22-7.04,1.83-10.46ZM8.73,6.86c-.25-1.64-.51-3.29-.76-4.95-.01,0-.02,0-.03,0-.26,1.67-.52,3.36-.77,5.06.52-.04,1.04-.08,1.57-.11Z"/>
      <path class="cls-1" d="M11.86.14c.86,0,1.72,0,2.58,0,1.81,0,2.58.71,2.58,2.15,0,.19,0,.38,0,.57,0,.96-.37,1.59-1.15,1.88,0,0,0,.02,0,.03.87.2,1.16.88,1.15,1.94,0,.55,0,1.1,0,1.64,0,.45.01.79.19,1.12-.59.04-1.18.08-1.78.13-.09-.24-.16-.38-.15-1.15,0-.58,0-1.16,0-1.73,0-.88-.3-1.15-1.09-1.12-.2,0-.4.02-.6.03,0,1.37,0,2.75-.01,4.12-.58.05-1.16.1-1.74.15.01-3.25.02-6.5.03-9.76ZM14.23,4.23c.65-.02,1.05-.28,1.05-1.04,0-.24,0-.49,0-.73,0-.68-.27-.97-.88-.96-.26,0-.53,0-.79,0,0,.91,0,1.83,0,2.74.21,0,.42-.02.63-.02Z"/>
      <path class="cls-1" d="M18.25.13c.58,0,1.16,0,1.74,0,0,3.06-.02,6.12-.03,9.17-.58.03-1.16.07-1.75.1,0-3.09.02-6.18.03-9.28Z"/>
      <path class="cls-1" d="M21.3.13c.58,0,1.16,0,1.74,0,0,1.27,0,2.54,0,3.8.74-1.28,1.49-2.55,2.23-3.81.58,0,1.16,0,1.74,0-.69,1.09-1.39,2.18-2.08,3.29.7,1.88,1.4,3.75,2.1,5.6-.61.02-1.22.03-1.83.05-.49-1.31-.98-2.63-1.47-3.96-.23.39-.47.77-.7,1.16,0,.96,0,1.92,0,2.88-.58.02-1.16.05-1.75.08,0-3.04.02-6.07.03-9.11Z"/>
      <path class="cls-1" d="M27.49,6.95c0-1.59,0-3.18,0-4.77C27.5.81,28.38,0,30.07,0c1.68,0,2.57.81,2.57,2.17,0,.31,0,.62,0,.93-.55,0-1.1,0-1.65,0,0-.34,0-.68,0-1.02,0-.58-.35-.82-.87-.82-.52,0-.87.24-.87.82,0,1.65,0,3.29,0,4.94,0,.58.35.8.87.8.52,0,.87-.24.87-.82,0-.45,0-.9,0-1.35.55,0,1.1,0,1.65,0,0,.42,0,.83,0,1.25,0,1.36-.89,2.16-2.58,2.19-1.68.02-2.57-.76-2.57-2.13Z"/>
      <path class="cls-1" d="M33.68.13c1.59,0,3.17,0,4.76,0,0,.42,0,.84,0,1.27-1,0-2.01,0-3.01,0,0,.78,0,1.55,0,2.33.8,0,1.6,0,2.4.01,0,.42,0,.84,0,1.26-.8,0-1.6-.02-2.4-.02,0,.9,0,1.81,0,2.71,1.01,0,2.01.02,3.02.04,0,.42,0,.84,0,1.27-1.59-.03-3.18-.05-4.77-.06,0-2.94,0-5.87,0-8.81Z"/>
      <path class="cls-1" d="M39.44.13c.58,0,1.16,0,1.74,0,0,1.26,0,2.51,0,3.77.74-1.25,1.48-2.5,2.21-3.77.58,0,1.16,0,1.74,0-.69,1.11-1.38,2.22-2.07,3.31.71,1.91,1.42,3.84,2.13,5.8-.61-.03-1.22-.06-1.83-.08-.5-1.36-.99-2.71-1.49-4.06-.23.38-.46.75-.7,1.12,0,.95,0,1.9,0,2.85-.58-.02-1.16-.04-1.75-.05,0-2.96,0-5.93-.01-8.89Z"/>
      <path class="cls-1" d="M46,.13c.58,0,1.16,0,1.74,0,0,3.08.02,6.17.03,9.25-.58-.04-1.16-.07-1.75-.1,0-3.05-.02-6.1-.03-9.15Z"/>
      <path class="cls-1" d="M49.05.13c.86,0,1.72,0,2.58,0,1.81,0,2.59.74,2.59,2.24,0,.2,0,.4,0,.6,0,1-.36,1.63-1.14,1.87,0,0,0,.02,0,.03.87.27,1.16,1.01,1.16,2.11,0,.57,0,1.14,0,1.71,0,.47.02.82.19,1.2-.59-.05-1.18-.1-1.77-.15-.1-.25-.16-.41-.16-1.19,0-.58,0-1.17,0-1.75,0-.89-.3-1.19-1.1-1.23-.2,0-.4-.02-.6-.03,0,1.35,0,2.7.01,4.05-.58-.04-1.16-.08-1.74-.12,0-3.11-.02-6.22-.03-9.33ZM51.44,4.21c.65.02,1.05-.21,1.04-.98,0-.25,0-.49,0-.74,0-.68-.27-.99-.89-1-.26,0-.53,0-.79,0,0,.9,0,1.8,0,2.7.21,0,.42.01.63.02Z"/>
      <path class="cls-1" d="M55.33,7.64c0-1.72-.01-3.44-.02-5.17C55.31.9,56.2,0,57.91,0c1.71,0,2.6.94,2.61,2.61,0,.3,0,.59,0,.89-.55-.02-1.1-.04-1.65-.06,0-.32,0-.65,0-.97,0-.73-.35-1.01-.91-1.02-.55,0-.9.26-.9.97,0,1.82.01,3.65.02,5.47,0,.71.35,1,.9,1.05.55.05.9-.18.9-.91,0-.66,0-1.33,0-1.99-.29-.02-.58-.04-.87-.05,0-.48,0-.96,0-1.44.84.04,1.68.08,2.52.12,0,1.13,0,2.26,0,3.39,0,1.66-.88,2.5-2.59,2.31-1.71-.18-2.6-1.16-2.6-2.73Z"/>
      <path class="cls-1" d="M61.64.15c1.59,0,3.17,0,4.76,0v1.59c-1-.02-2.01-.04-3.01-.06,0,.94,0,1.89,0,2.83.8.04,1.59.09,2.39.13,0,.52,0,1.05,0,1.57-.8-.06-1.59-.12-2.39-.18,0,1.1,0,2.19,0,3.29,1,.11,2,.22,3,.35v1.58c-1.58-.22-3.16-.43-4.74-.62,0-3.5-.01-6.99-.02-10.49Z"/>
    </g>
  </g>
</svg>