<?xml version="1.0" encoding="UTF-8"?>
<svg id="katman_2" data-name="katman 2" xmlns="http://www.w3.org/2000/svg" viewBox="0 0 158.9 48.13">
  <defs>
    <style>
      .cls-1 {
        fill: #e50914;
        stroke-width: 0px;
      }
    </style>
  </defs>
  <g id="katman_1" data-name="katman 1">
    <g>
      <path class="cls-1" d="M26.17,23.99c-.82-7.93-1.65-15.93-2.47-23.99h-9.72c-.87,8.34-1.74,16.76-2.61,25.26-.78-8.34-1.57-16.76-2.36-25.26H0c1.63,16.04,3.24,31.75,4.83,47.16,3.78-.73,7.56-1.41,11.35-2.03.84-7.4,1.67-14.73,2.51-21.99.8,7.13,1.59,14.21,2.39,21.22,3.6-.54,7.2-1.03,10.81-1.48,1.68-14.49,3.36-28.78,5.04-42.89h-8.28c-.83,7.94-1.66,15.93-2.49,23.99Z"/>
      <path class="cls-1" d="M38.37,42.15c3.09-.33,6.18-.61,9.27-.87.05-13.76.09-27.52.14-41.29h-9.25c-.05,14.05-.11,28.1-.16,42.15Z"/>
      <path class="cls-1" d="M49.24,7.35c2.53-.04,5.06-.07,7.58-.09-.03,11.13-.06,22.26-.09,33.4,3.1-.18,6.19-.32,9.29-.43.02-11.01.04-22.03.06-33.04,2.53-.02,5.06-.03,7.59-.03,0-2.38,0-4.76,0-7.15h-24.41c0,2.45-.02,4.9-.02,7.35Z"/>
      <path class="cls-1" d="M96.34,0h-21.18c0,13.34-.01,26.68-.02,40.02,3.1-.03,6.2-.03,9.3,0,0-5.57,0-11.14-.01-16.71,3.13.02,6.26.07,9.39.14,0-2.39,0-4.79-.01-7.18-3.13-.05-6.25-.08-9.38-.09V7.14c3.97,0,7.95.03,11.93.06,0-2.4-.01-4.8-.02-7.2Z"/>
      <path class="cls-1" d="M107.19,33.66l-.1-33.66h-9.25c.03,13.48.06,26.95.09,40.43,7.09.33,14.17.86,21.24,1.58,0-2.5-.02-5-.03-7.5-3.98-.33-7.97-.62-11.95-.85Z"/>
      <path class="cls-1" d="M120.5,0c.05,14.05.11,28.11.16,42.16,3.09.33,6.17.69,9.25,1.09-.05-14.42-.11-28.84-.16-43.25h-9.25Z"/>
      <path class="cls-1" d="M150.21,22.71c2.75-7.32,5.51-14.88,8.29-22.71h-8.99c-1.44,4.14-2.88,8.22-4.31,12.23-1.42-4.14-2.84-8.21-4.26-12.23h-9.78c2.8,7.08,5.6,14.34,8.4,21.83-2.88,7.38-5.76,14.55-8.63,21.56,2.99.4,5.98.83,8.97,1.29,1.56-4.12,3.12-8.3,4.68-12.55,1.55,4.62,3.09,9.33,4.63,14.12,3.24.59,6.47,1.21,9.7,1.88-2.88-8.79-5.78-17.25-8.69-25.42Z"/>
    </g>
  </g>
</svg>